<?xml version="1.0" standalone="no"?>
<!DOCTYPE svg PUBLIC "-//W3C//DTD SVG 20010904//EN"
 "http://www.w3.org/TR/2001/REC-SVG-20010904/DTD/svg10.dtd">
<svg version="1.0" xmlns="http://www.w3.org/2000/svg"
 width="512.000000pt" height="512.000000pt" viewBox="0 0 512.000000 512.000000"
 preserveAspectRatio="xMidYMid meet">

<g transform="translate(0.000000,512.000000) scale(0.100000,-0.100000)"
fill="#000000" stroke="none">
<path d="M2380 4720 c-348 -74 -607 -319 -702 -665 -15 -53 -21 -115 -25 -257
l-5 -188 -55 0 c-65 0 -122 -26 -155 -72 -21 -31 -23 -44 -26 -190 l-3 -158
-127 0 -126 0 -167 165 -166 165 -235 0 -235 0 -24 38 c-28 44 -98 82 -149 82
-20 0 -56 -10 -80 -22 -132 -67 -132 -249 0 -315 24 -13 60 -23 80 -23 51 0
121 38 149 83 l24 37 211 0 210 0 167 -165 166 -165 152 0 151 0 0 -155 0
-155 -463 0 -464 0 -24 38 c-28 44 -98 82 -149 82 -20 0 -56 -10 -80 -22 -132
-67 -132 -249 0 -315 24 -13 60 -23 80 -23 51 0 121 38 149 83 l24 37 464 0
463 0 0 -155 0 -155 -151 0 -152 0 -166 -165 -167 -165 -210 0 -211 0 -24 38
c-28 44 -98 82 -149 82 -20 0 -56 -10 -80 -23 -132 -66 -132 -248 0 -314 24
-13 60 -23 80 -23 51 0 121 38 149 83 l24 37 236 0 236 0 159 165 158 165 133
0 134 0 3 -157 c3 -147 5 -160 26 -191 13 -18 41 -41 62 -52 36 -18 60 -20
305 -20 l265 0 0 -127 0 -127 -165 -167 -165 -166 0 -235 0 -235 -37 -24 c-45
-28 -83 -98 -83 -149 0 -20 10 -56 22 -80 67 -132 249 -132 316 0 12 24 22 60
22 80 0 51 -38 121 -82 149 l-38 24 0 212 0 211 33 30 c17 17 92 91 165 165
l132 136 0 151 0 152 155 0 155 0 0 -468 0 -469 -37 -24 c-45 -28 -83 -98 -83
-149 0 -20 10 -56 23 -80 66 -132 248 -132 315 0 12 24 22 60 22 80 0 51 -38
121 -82 149 l-38 24 0 469 0 468 155 0 155 0 0 -152 0 -151 133 -136 c72 -74
147 -148 165 -165 l32 -30 0 -211 0 -212 -37 -24 c-45 -28 -83 -98 -83 -149 0
-20 10 -56 23 -80 66 -132 248 -132 315 0 12 24 22 60 22 80 0 51 -38 121 -82
149 l-38 24 0 235 0 235 -165 166 -165 167 0 127 0 127 265 0 c245 0 269 2
305 20 21 11 49 34 62 52 21 31 23 44 26 191 l3 157 134 0 133 0 158 -165 159
-165 236 0 236 0 24 -37 c28 -45 98 -83 149 -83 20 0 56 10 80 23 132 66 132
248 0 315 -24 12 -60 22 -80 22 -51 0 -121 -38 -149 -82 l-24 -38 -210 0 -210
0 -167 165 -168 165 -151 0 -151 0 0 155 0 155 463 0 464 0 24 -37 c28 -45 98
-83 149 -83 20 0 56 10 80 23 132 66 132 248 0 315 -24 12 -60 22 -80 22 -51
0 -121 -38 -149 -82 l-24 -38 -464 0 -463 0 0 155 0 155 151 0 152 0 166 165
167 165 210 0 211 0 24 -37 c28 -45 98 -83 149 -83 20 0 56 10 80 23 132 66
132 248 0 315 -24 12 -60 22 -80 22 -51 0 -121 -38 -149 -82 l-24 -38 -235 0
-235 0 -166 -165 -167 -165 -126 0 -127 0 -3 158 c-3 146 -5 159 -26 190 -33
46 -90 72 -155 72 l-55 0 -4 188 c-6 200 -21 278 -82 416 -58 132 -191 285
-326 376 -188 127 -455 179 -680 130z m385 -125 c225 -62 419 -227 516 -440
50 -111 61 -167 66 -362 l5 -183 -792 0 -792 0 5 183 c5 195 16 250 67 363 76
169 225 318 394 394 59 27 146 53 211 64 57 9 260 -3 320 -19z m-2545 -1095
c11 -11 20 -29 20 -40 0 -26 -34 -60 -60 -60 -26 0 -60 34 -60 60 0 26 34 60
60 60 11 0 29 -9 40 -20z m4760 0 c11 -11 20 -29 20 -40 0 -11 -9 -29 -20 -40
-11 -11 -29 -20 -40 -20 -11 0 -29 9 -40 20 -11 11 -20 29 -20 40 0 11 9 29
20 40 11 11 29 20 40 20 11 0 29 -9 40 -20z m-1402 -22 c17 -17 17 -1539 0
-1556 -17 -17 -2019 -17 -2036 0 -17 17 -17 1539 0 1556 17 17 2019 17 2036 0z
m-3228 -738 c11 -11 20 -29 20 -40 0 -28 -35 -60 -64 -60 -26 0 -56 33 -56 60
0 27 30 60 56 60 13 0 33 -9 44 -20z m4510 -12 c13 -25 13 -31 0 -55 -20 -36
-61 -42 -89 -14 -12 12 -21 30 -21 41 0 11 9 29 21 41 28 28 69 22 89 -13z
m-4639 -749 c28 -28 22 -69 -13 -89 -25 -13 -31 -13 -56 0 -35 20 -41 61 -13
89 12 12 30 21 41 21 11 0 29 -9 41 -21z m4760 0 c28 -28 22 -69 -13 -89 -25
-13 -31 -13 -55 0 -36 20 -42 61 -14 89 12 12 30 21 41 21 11 0 29 -9 41 -21z
m-2383 -1255 c12 -8 22 -26 22 -40 0 -29 -32 -64 -60 -64 -28 0 -60 35 -60 64
0 26 33 56 60 56 9 0 26 -7 38 -16z m-758 -124 c27 -27 26 -65 -2 -84 -63 -44
-126 19 -82 82 19 28 57 29 84 2z m1521 -1 c28 -28 22 -69 -13 -89 -25 -13
-31 -13 -55 0 -36 20 -42 61 -14 89 12 12 30 21 41 21 11 0 29 -9 41 -21z"/>
<path d="M2484 3160 c-61 -19 -126 -73 -158 -130 -27 -48 -31 -65 -31 -130 0
-65 4 -83 30 -129 31 -57 83 -102 141 -123 l34 -12 0 -183 c0 -170 1 -184 20
-203 11 -11 29 -20 40 -20 11 0 29 9 40 20 19 19 20 33 20 203 l0 183 34 12
c92 34 163 125 173 225 15 151 -98 284 -250 293 -34 2 -76 -1 -93 -6z m147
-133 c103 -70 103 -184 -1 -254 -64 -44 -146 -20 -197 56 -30 44 -30 98 0 142
32 47 83 79 127 79 22 0 51 -9 71 -23z"/>
</g>
</svg>
